<mxfile host="app.diagrams.net" modified="2021-08-12T14:26:42.463Z" agent="5.0 (Macintosh; Intel Mac OS X 10_15_7) AppleWebKit/537.36 (KHTML, like Gecko) Chrome/92.0.4515.131 Safari/537.36" etag="SJMMrMjn2hjL-SMB5MuV" version="14.9.6" type="github">
  <diagram id="_eN63hCr3E5-bqdoEzAJ" name="Page-1">
    <mxGraphModel dx="1255" dy="754" grid="1" gridSize="10" guides="1" tooltips="1" connect="1" arrows="1" fold="1" page="1" pageScale="1" pageWidth="827" pageHeight="1169" math="0" shadow="0">
      <root>
        <mxCell id="0" />
        <mxCell id="1" parent="0" />
        <mxCell id="I1iA3QNqFAUBeCinv_yO-1" value="&lt;span style=&quot;font-size: 20px&quot;&gt;&lt;font&gt;AND&lt;/font&gt;&lt;/span&gt;" style="ellipse;whiteSpace=wrap;html=1;aspect=fixed;fontStyle=0;fontSize=20;fontFamily=TencentSans;" parent="1" vertex="1">
          <mxGeometry x="310" width="80" height="80" as="geometry" />
        </mxCell>
        <mxCell id="I1iA3QNqFAUBeCinv_yO-2" value="&lt;span style=&quot;font-size: 20px&quot;&gt;&lt;font&gt;distinct&lt;/font&gt;&lt;/span&gt;" style="ellipse;whiteSpace=wrap;html=1;aspect=fixed;fontStyle=0;fontSize=20;fontFamily=TencentSans;fillColor=#1306F0;" parent="1" vertex="1">
          <mxGeometry x="280" y="400" width="80" height="80" as="geometry" />
        </mxCell>
        <mxCell id="I1iA3QNqFAUBeCinv_yO-3" value="&lt;span style=&quot;font-size: 20px&quot;&gt;&lt;font&gt;count&lt;/font&gt;&lt;/span&gt;" style="ellipse;whiteSpace=wrap;html=1;aspect=fixed;fontStyle=0;fontSize=20;fontFamily=TencentSans;" parent="1" vertex="1">
          <mxGeometry x="490" y="400" width="80" height="80" as="geometry" />
        </mxCell>
        <mxCell id="I1iA3QNqFAUBeCinv_yO-5" value="&lt;span style=&quot;font-size: 20px&quot;&gt;&lt;font&gt;DIV&lt;/font&gt;&lt;/span&gt;" style="ellipse;whiteSpace=wrap;html=1;aspect=fixed;fontStyle=0;fontSize=20;fontFamily=TencentSans;" parent="1" vertex="1">
          <mxGeometry x="390" y="270" width="80" height="80" as="geometry" />
        </mxCell>
        <mxCell id="I1iA3QNqFAUBeCinv_yO-7" value="" style="endArrow=classic;html=1;exitX=1;exitY=1;exitDx=0;exitDy=0;entryX=0;entryY=0;entryDx=0;entryDy=0;fontStyle=0;fontSize=20;fontFamily=TencentSans;" parent="1" source="I1iA3QNqFAUBeCinv_yO-1" target="I1iA3QNqFAUBeCinv_yO-13" edge="1">
          <mxGeometry width="50" height="50" relative="1" as="geometry">
            <mxPoint x="296.45122126908655" y="197.63549647475975" as="sourcePoint" />
            <mxPoint x="450" y="260" as="targetPoint" />
          </mxGeometry>
        </mxCell>
        <mxCell id="I1iA3QNqFAUBeCinv_yO-8" value="&lt;span style=&quot;font-size: 20px&quot;&gt;&lt;font&gt;GT&lt;/font&gt;&lt;/span&gt;" style="ellipse;whiteSpace=wrap;html=1;aspect=fixed;fontStyle=0;fontSize=20;fontFamily=TencentSans;" parent="1" vertex="1">
          <mxGeometry x="130" y="240" width="80" height="80" as="geometry" />
        </mxCell>
        <mxCell id="I1iA3QNqFAUBeCinv_yO-9" value="&lt;span style=&quot;font-size: 20px&quot;&gt;&lt;font&gt;10&lt;/font&gt;&lt;/span&gt;" style="ellipse;whiteSpace=wrap;html=1;aspect=fixed;fontStyle=0;fontSize=20;fontFamily=TencentSans;" parent="1" vertex="1">
          <mxGeometry x="40" y="400" width="80" height="80" as="geometry" />
        </mxCell>
        <mxCell id="I1iA3QNqFAUBeCinv_yO-10" value="" style="endArrow=classic;html=1;exitX=0;exitY=1;exitDx=0;exitDy=0;fontStyle=0;fontSize=20;fontFamily=TencentSans;entryX=0.5;entryY=0;entryDx=0;entryDy=0;" parent="1" source="I1iA3QNqFAUBeCinv_yO-8" target="I1iA3QNqFAUBeCinv_yO-9" edge="1">
          <mxGeometry width="50" height="50" relative="1" as="geometry">
            <mxPoint x="338.28427124746213" y="188.28427124746213" as="sourcePoint" />
            <mxPoint x="100" y="400" as="targetPoint" />
          </mxGeometry>
        </mxCell>
        <mxCell id="I1iA3QNqFAUBeCinv_yO-11" value="" style="endArrow=classic;html=1;exitX=1;exitY=1;exitDx=0;exitDy=0;fontStyle=0;fontSize=20;fontFamily=TencentSans;entryX=0;entryY=0;entryDx=0;entryDy=0;" parent="1" source="I1iA3QNqFAUBeCinv_yO-8" target="I1iA3QNqFAUBeCinv_yO-2" edge="1">
          <mxGeometry width="50" height="50" relative="1" as="geometry">
            <mxPoint x="161.71572875253787" y="338.28427124746213" as="sourcePoint" />
            <mxPoint x="240" y="400" as="targetPoint" />
          </mxGeometry>
        </mxCell>
        <mxCell id="I1iA3QNqFAUBeCinv_yO-12" value="" style="endArrow=classic;html=1;exitX=0;exitY=1;exitDx=0;exitDy=0;entryX=0.5;entryY=0;entryDx=0;entryDy=0;fontStyle=0;fontSize=20;fontFamily=TencentSans;" parent="1" source="I1iA3QNqFAUBeCinv_yO-1" target="I1iA3QNqFAUBeCinv_yO-8" edge="1">
          <mxGeometry width="50" height="50" relative="1" as="geometry">
            <mxPoint x="151.71572875253787" y="318.28427124746213" as="sourcePoint" />
            <mxPoint x="110" y="410" as="targetPoint" />
          </mxGeometry>
        </mxCell>
        <mxCell id="I1iA3QNqFAUBeCinv_yO-13" value="&lt;span style=&quot;font-size: 20px;&quot;&gt;GT&lt;/span&gt;" style="ellipse;whiteSpace=wrap;html=1;aspect=fixed;fontStyle=0;fontSize=20;fontFamily=TencentSans;" parent="1" vertex="1">
          <mxGeometry x="480" y="170" width="80" height="80" as="geometry" />
        </mxCell>
        <mxCell id="I1iA3QNqFAUBeCinv_yO-14" value="&lt;span style=&quot;font-size: 20px&quot;&gt;&lt;font&gt;0.2&lt;/font&gt;&lt;/span&gt;" style="ellipse;whiteSpace=wrap;html=1;aspect=fixed;fontStyle=0;fontSize=20;fontFamily=TencentSans;" parent="1" vertex="1">
          <mxGeometry x="680" y="400" width="80" height="80" as="geometry" />
        </mxCell>
        <mxCell id="I1iA3QNqFAUBeCinv_yO-15" value="" style="endArrow=classic;html=1;entryX=1;entryY=0;entryDx=0;entryDy=0;fontStyle=0;fontSize=20;fontFamily=TencentSans;" parent="1" source="I1iA3QNqFAUBeCinv_yO-13" target="I1iA3QNqFAUBeCinv_yO-5" edge="1">
          <mxGeometry width="50" height="50" relative="1" as="geometry">
            <mxPoint x="348.28427124746213" y="138.28427124746213" as="sourcePoint" />
            <mxPoint x="430" y="290" as="targetPoint" />
          </mxGeometry>
        </mxCell>
        <mxCell id="I1iA3QNqFAUBeCinv_yO-16" value="" style="endArrow=classic;html=1;exitX=1;exitY=1;exitDx=0;exitDy=0;entryX=0.5;entryY=0;entryDx=0;entryDy=0;fontStyle=0;fontSize=20;fontFamily=TencentSans;" parent="1" source="I1iA3QNqFAUBeCinv_yO-13" target="I1iA3QNqFAUBeCinv_yO-14" edge="1">
          <mxGeometry width="50" height="50" relative="1" as="geometry">
            <mxPoint x="358.28427124746213" y="148.28427124746213" as="sourcePoint" />
            <mxPoint x="670" y="460" as="targetPoint" />
          </mxGeometry>
        </mxCell>
        <mxCell id="I1iA3QNqFAUBeCinv_yO-18" value="" style="endArrow=classic;html=1;exitX=1;exitY=1;exitDx=0;exitDy=0;fontStyle=0;fontSize=20;fontFamily=TencentSans;entryX=0.5;entryY=0;entryDx=0;entryDy=0;" parent="1" source="I1iA3QNqFAUBeCinv_yO-5" target="I1iA3QNqFAUBeCinv_yO-3" edge="1">
          <mxGeometry width="50" height="50" relative="1" as="geometry">
            <mxPoint x="218.28427124746213" y="328.28427124746213" as="sourcePoint" />
            <mxPoint x="520" y="420" as="targetPoint" />
          </mxGeometry>
        </mxCell>
        <mxCell id="I1iA3QNqFAUBeCinv_yO-19" value="" style="endArrow=classic;html=1;exitX=0;exitY=1;exitDx=0;exitDy=0;fontStyle=0;fontSize=20;fontFamily=TencentSans;entryX=1;entryY=0;entryDx=0;entryDy=0;" parent="1" source="I1iA3QNqFAUBeCinv_yO-5" target="I1iA3QNqFAUBeCinv_yO-2" edge="1">
          <mxGeometry width="50" height="50" relative="1" as="geometry">
            <mxPoint x="208.28427124746213" y="318.28427124746213" as="sourcePoint" />
            <mxPoint x="360" y="400" as="targetPoint" />
          </mxGeometry>
        </mxCell>
      </root>
    </mxGraphModel>
  </diagram>
</mxfile>
